<svg width="72" height="73" viewBox="0 0 72 73" fill="none" xmlns="http://www.w3.org/2000/svg">
<rect y="0.722168" width="72" height="72" rx="17.2301" fill="url(#paint0_linear_1664_4560)"/>
<g clip-path="url(#clip0_1664_4560)">
<path d="M57.9998 28.2312C57.8642 28.9445 57.7662 29.6675 57.5876 30.3701C56.9634 32.8242 55.6719 34.8813 53.7778 36.5533C53.6342 36.664 53.5198 36.8081 53.4448 36.9732C53.3698 37.1382 53.3363 37.3191 53.3473 37.5001C53.3764 38.8987 53.3538 40.3049 53.3613 41.7068C53.3613 42.1372 53.2612 42.5105 52.8232 42.6902C52.3852 42.8699 52.0505 42.6902 51.747 42.3804C50.7977 41.4271 49.8485 40.4728 48.8842 39.5346C48.8214 39.4781 48.7473 39.4355 48.6668 39.4097C48.5862 39.3839 48.5012 39.3755 48.4171 39.3851C46.5811 39.8025 44.7214 39.7498 42.8606 39.6874C40.6454 39.6345 38.489 38.9637 36.6347 37.7508C33.5137 35.7066 31.5679 32.8565 31.0212 29.1543C30.355 24.6355 31.7907 20.8236 35.1958 17.796C37.4559 15.7895 40.1464 14.8201 43.1598 14.7599C44.7462 14.7276 46.3411 14.6609 47.9092 14.9955C51.8288 15.8304 54.7281 18.0284 56.6093 21.5585C57.3497 22.9676 57.7988 24.5114 57.9298 26.0977C57.9439 26.1817 57.9648 26.2645 57.9922 26.3451L57.9998 28.2312ZM51.6404 39.8509C51.6404 38.9665 51.7007 38.194 51.6253 37.4344C51.5339 36.4963 51.8826 35.8841 52.6036 35.2826C54.6883 33.5386 55.8613 31.2502 56.1874 28.5604C56.548 25.5802 55.7892 22.8775 53.9134 20.5299C52.2033 18.3889 49.9777 17.0698 47.2613 16.6341C45.5322 16.3658 43.7735 16.3484 42.0395 16.5824C40.9615 16.7145 39.9095 17.0076 38.9185 17.4518C35.4272 19.0656 33.2845 21.8102 32.7173 25.6286C32.1136 29.6933 33.504 33.0652 36.6692 35.6678C38.4439 37.1257 40.521 37.8863 42.8262 37.9713C44.6708 38.0391 46.523 38.1424 48.3246 37.613C48.9348 37.4345 49.3922 37.5496 49.8216 38.0208C50.3791 38.6147 50.9796 39.1796 51.6404 39.8423V39.8509Z" fill="white"/>
<path d="M29.0412 58.7222C28.0726 57.7905 27.0523 56.9104 26.1645 55.9098C25.4854 55.1449 24.7589 54.849 23.7484 54.9221C22.5516 55.0082 21.3441 54.9469 20.1409 54.9415C16.6335 54.9243 14.0129 52.3055 14.0065 48.7938C13.9978 44.4708 13.9978 40.1479 14.0065 35.8249C14.014 32.3164 16.64 29.6987 20.1516 29.6923C22.9154 29.6851 25.6777 29.6851 28.4385 29.6923C28.6241 29.6868 28.8095 29.7111 28.9874 29.7644C29.1499 29.8219 29.2905 29.9286 29.3898 30.0695C29.4891 30.2105 29.5421 30.3788 29.5415 30.5511C29.5409 30.7235 29.4867 30.8914 29.3865 31.0317C29.2863 31.172 29.1449 31.2776 28.982 31.3341C28.7895 31.388 28.5899 31.412 28.3901 31.4051C25.6694 31.4094 22.9487 31.4094 20.2281 31.4051C17.5816 31.4051 15.7209 33.2696 15.7198 35.9239C15.7198 40.1902 15.7198 44.4558 15.7198 48.7206C15.7198 51.3674 17.5849 53.2254 20.2399 53.2287C21.9296 53.2287 23.6192 53.2373 25.3089 53.2233C25.7727 53.2233 26.0956 53.3696 26.4152 53.7322C27.0244 54.424 27.7153 55.0459 28.4428 55.7656C28.4428 55.246 28.4428 54.8092 28.4428 54.3734C28.4428 53.5289 28.7388 53.2297 29.5761 53.2287C32.4984 53.2287 35.4196 53.2287 38.3397 53.2287C41.0195 53.2287 42.8749 51.376 42.877 48.7002C42.877 46.897 42.877 45.0927 42.877 43.2895C42.8703 43.09 42.8969 42.8907 42.9556 42.6999C43.0087 42.5339 43.1162 42.3906 43.2606 42.2931C43.405 42.1955 43.5781 42.1493 43.752 42.162C43.9264 42.1584 44.0971 42.2129 44.2372 42.3169C44.3773 42.4209 44.4788 42.5685 44.5258 42.7365C44.5727 42.9008 44.5944 43.0713 44.5903 43.2422C44.5903 45.1325 44.6054 47.0218 44.5903 48.9111C44.5656 51.816 42.6639 54.1679 39.8356 54.8006C39.3452 54.9002 38.8455 54.9478 38.3451 54.9426C35.6674 54.9566 32.9898 54.9501 30.3122 54.9512C30.2842 54.9512 30.2562 54.9598 30.1583 54.9749V56.097C30.1583 56.5833 30.1346 57.0718 30.1637 57.557C30.196 58.0821 30.0248 58.4737 29.5556 58.7254L29.0412 58.7222Z" fill="white"/>
<path d="M28.6128 41.369H37.2936C37.4373 41.3631 37.5812 41.3681 37.7241 41.3841C37.9351 41.4025 38.1316 41.4994 38.2747 41.6555C38.4178 41.8117 38.4972 42.0158 38.4972 42.2275C38.4972 42.4393 38.4178 42.6434 38.2747 42.7996C38.1316 42.9557 37.9351 43.0526 37.7241 43.071C37.5811 43.0864 37.4373 43.0915 37.2936 43.0861H19.762C19.0646 43.0861 18.6503 42.7633 18.6514 42.2254C18.6524 41.6875 19.0657 41.3647 19.7631 41.3647L28.6128 41.369Z" fill="white"/>
<path d="M26.8771 46.1804C29.2678 46.1804 31.658 46.1804 34.048 46.1804C34.7464 46.1804 35.1597 46.5634 35.0887 47.1304C35.037 47.5543 34.7809 47.7964 34.373 47.8738C34.2173 47.896 34.0598 47.9035 33.9027 47.8964H19.8591C19.0778 47.8964 18.6602 47.6049 18.6506 47.0508C18.6409 46.4967 19.0681 46.1793 19.8764 46.1793L26.8771 46.1804Z" fill="white"/>
<path d="M25.733 38.2769H19.8471C19.7035 38.2825 19.5596 38.2779 19.4167 38.2629C19.2065 38.243 19.0113 38.1455 18.8692 37.9894C18.7272 37.8333 18.6484 37.6299 18.6484 37.4188C18.6484 37.2078 18.7272 37.0044 18.8692 36.8483C19.0113 36.6922 19.2065 36.5947 19.4167 36.5748C19.5596 36.5598 19.7035 36.5551 19.8471 36.5608H31.7931C32.4894 36.5608 32.9038 36.8836 32.9038 37.4215C32.9038 37.9595 32.4894 38.2823 31.7921 38.2823C29.7716 38.2801 27.7519 38.2783 25.733 38.2769Z" fill="white"/>
<path d="M37.6168 47.8911C37.4483 47.887 37.2848 47.8331 37.147 47.7361C37.0091 47.6391 36.9031 47.5034 36.8424 47.3462C36.7817 47.1891 36.7689 47.0174 36.8058 46.853C36.8426 46.6885 36.9274 46.5387 37.0494 46.4224C37.1715 46.3062 37.3252 46.2287 37.4913 46.1998C37.6573 46.1709 37.8282 46.1918 37.9824 46.26C38.1365 46.3282 38.267 46.4405 38.3573 46.5828C38.4476 46.7251 38.4936 46.891 38.4897 47.0594C38.4763 47.2827 38.3789 47.4926 38.2169 47.647C38.055 47.8013 37.8406 47.8885 37.6168 47.8911Z" fill="white"/>
<path d="M43.8109 28.7831C43.8109 28.5399 43.8109 28.2968 43.8109 28.0525C43.8163 27.0563 44.1832 26.5463 45.1303 26.2536C45.8266 26.0385 46.3012 25.6081 46.5025 24.9077C46.8103 23.8253 46.1355 22.7462 45.0109 22.517C44.7573 22.4687 44.4966 22.4726 44.2447 22.5285C43.9927 22.5845 43.7549 22.6913 43.5457 22.8424C43.3365 22.9935 43.1604 23.1857 43.0281 23.4073C42.8959 23.6288 42.8103 23.8751 42.7766 24.1309C42.7594 24.2578 42.74 24.3848 42.7142 24.5118C42.6163 25.0024 42.2837 25.2649 41.8091 25.2337C41.3625 25.2003 41.0471 24.8442 41.0385 24.3633C41.0041 22.3266 42.9434 20.5503 44.9603 20.7719C46.5208 20.943 47.7832 22.0006 48.176 23.4617C48.3647 24.1644 48.3362 24.9078 48.0944 25.5942C47.8526 26.2805 47.4087 26.8776 46.8211 27.3069C46.5479 27.5145 46.242 27.6748 45.916 27.7814C45.5931 27.889 45.5027 28.0429 45.5221 28.3635C45.55 28.8336 45.5382 29.3081 45.5221 29.7794C45.507 30.3959 45.14 30.7993 44.632 30.78C44.1241 30.7606 43.8163 30.3765 43.8066 29.7708C43.8076 29.4415 43.8119 29.1123 43.8109 28.7831Z" fill="white"/>
<path d="M44.6622 34.1647C44.5513 34.165 44.4414 34.1434 44.3388 34.1011C44.2363 34.0588 44.1431 33.9967 44.0646 33.9184C43.9861 33.84 43.9238 33.7469 43.8814 33.6444C43.839 33.542 43.8172 33.4321 43.8174 33.3212C43.8194 33.0971 43.9094 32.8827 44.068 32.7243C44.2267 32.5659 44.4412 32.4762 44.6654 32.4745C44.8895 32.4802 45.103 32.5714 45.2619 32.7295C45.4208 32.8875 45.5131 33.1004 45.5199 33.3244C45.513 33.5481 45.4199 33.7604 45.26 33.917C45.1002 34.0736 44.886 34.1623 44.6622 34.1647Z" fill="white"/>
</g>
<defs>
<linearGradient id="paint0_linear_1664_4560" x1="36" y1="0.722168" x2="36" y2="72.7222" gradientUnits="userSpaceOnUse">
<stop stop-color="#5FAFF9"/>
<stop offset="1" stop-color="#0D7EE8"/>
</linearGradient>
<clipPath id="clip0_1664_4560">
<rect width="44" height="44" fill="white" transform="translate(14 14.7222)"/>
</clipPath>
</defs>
</svg>
