<svg width="72" height="72" viewBox="0 0 72 72" fill="none" xmlns="http://www.w3.org/2000/svg">
<g id="Group 18">
<rect id="Rectangle" width="72" height="72" rx="17.1937" fill="url(#paint0_linear_1673_4886)"/>
<g id="bx-bx-video">
<g id="Icon">
<g id="Frame" clip-path="url(#clip0_1673_4886)">
<path id="Vector" d="M36.391 13C37.3066 13.1739 38.2423 13.2775 39.1334 13.5316C42.8182 14.5847 45.5517 16.8424 47.3573 20.2078C48.4449 22.237 48.887 24.4257 48.8748 26.7168C48.8658 28.3772 48.8748 30.0377 48.8748 31.6981C48.8748 33.5067 47.7671 34.6144 45.966 34.6211C45.5193 34.6211 45.0727 34.6211 44.702 34.6211C44.367 35.7778 44.0856 36.9122 43.6903 38.0021C43.2872 39.1109 42.5659 40.0458 41.7485 40.9139C42.2275 41.8701 42.6876 42.8139 43.1789 43.7433C43.2537 43.886 43.4536 43.9974 43.6256 44.0542C44.9566 44.5134 46.3054 44.9212 47.6286 45.4071C51.2822 46.7532 53.6751 49.3742 55.11 52.9246C55.6798 54.3609 55.9825 55.8888 56.0033 57.4334C56.0211 58.2134 55.6884 58.5544 54.9056 58.5544C41.9662 58.5544 29.0261 58.5544 16.0853 58.5544C15.3338 58.5544 14.9686 58.2001 15.0077 57.4601C15.3103 52.2081 17.6318 48.1919 22.4232 45.8261C23.9128 45.0906 25.5665 44.6794 27.1554 44.1545C27.5652 44.0186 27.8354 43.8202 28.0152 43.4224C28.3413 42.6936 28.7131 41.9837 29.0872 41.2761C29.2223 41.0209 29.2055 40.8649 29.0112 40.6242C28.5289 40.0269 28.0431 39.4151 27.6836 38.7431C27.4402 38.2885 27.1811 38.1648 26.6987 38.1703C25.543 38.1837 24.6307 37.6834 24.1841 36.6024C23.9775 36.1021 23.9664 35.5103 23.9262 34.9565C23.9027 34.6378 23.8614 34.4439 23.5331 34.2745C22.6465 33.8176 22.1507 33.0409 22.1463 32.0458C22.134 29.749 22.0424 27.4401 22.2278 25.1567C22.5806 20.8407 24.6899 17.4921 28.31 15.1129C30.1312 13.9202 32.2283 13.2131 34.4012 13.0591C34.4734 13.0464 34.5441 13.0263 34.6122 12.9989L36.391 13ZM43.477 28.1633C42.4911 27.9828 41.5788 27.8602 40.6855 27.6451C38.0578 27.0237 35.6309 25.7473 33.6318 23.9354C33.498 23.8077 33.3221 23.7332 33.1371 23.7258C32.0223 23.8239 30.9551 24.2226 30.0497 24.8792C29.0827 25.5646 28.4507 26.5419 27.7617 27.4679C27.6265 27.6542 27.557 27.8799 27.5641 28.1098C27.7026 29.8371 27.8433 31.5643 28.0376 33.2872C28.1548 34.3258 28.3725 35.3532 28.5434 36.4074C29.3652 36.4074 30.1066 36.3952 30.8458 36.4141C31.1094 36.4208 31.2244 36.3227 31.3416 36.0954C31.8184 35.1783 32.5956 34.6879 33.6262 34.6378C34.2638 34.6077 34.9048 34.611 35.5423 34.6378C37.0353 34.6957 38.1653 35.8502 38.1709 37.2978C38.1764 38.7454 37.0185 39.9188 35.5066 39.9645C34.9572 39.9812 34.4067 39.9701 33.8574 39.9645C32.6972 39.9645 31.8363 39.4675 31.3003 38.4267C31.2523 38.333 31.1551 38.2038 31.077 38.2038C30.5388 38.1837 29.9994 38.1926 29.3931 38.1926C30.2194 39.5399 31.2523 40.5395 32.6224 41.139C36.8823 43.0023 41.2896 40.535 42.4296 36.1946C42.8149 34.7269 42.96 33.1936 43.1588 31.6825C43.3107 30.5157 43.3732 29.3467 43.477 28.1633ZM33.8897 56.7603C32.7151 54.9472 31.5058 53.2556 30.4841 51.457C29.4623 49.6584 28.6204 47.7372 27.6847 45.8383C26.6943 46.1727 25.6301 46.5393 24.5582 46.8803C20.7874 48.0827 18.4748 50.7004 17.2812 54.3789C17.0344 55.1378 16.9372 55.9446 16.7642 56.7603H33.8897ZM37.0721 56.7447H54.1564C54.0347 53.6646 52.1074 50.2368 49.5381 48.3869C47.6398 47.0173 45.3541 46.624 43.1644 45.7693C41.849 49.8211 39.465 53.2433 37.0721 56.7447ZM43.486 26.3157C43.8277 23.1531 41.9104 20.0261 38.9972 18.8616C37.5277 18.2743 36.0046 18.3044 34.4771 18.349C33.0589 18.3934 31.6854 18.8551 30.5294 19.6761C29.3733 20.4972 28.4862 21.6409 27.9795 22.9636C27.7751 23.5052 27.659 24.078 27.5016 24.6352L27.6903 24.7466C27.7381 24.6397 27.7976 24.5384 27.8678 24.4446C29.3295 22.899 31.1339 22.0833 33.2488 21.9027C33.498 21.8732 33.7507 21.9013 33.9873 21.9848C34.2239 22.0682 34.4381 22.2049 34.6133 22.3841C37.0911 24.7511 40.0781 25.9836 43.486 26.3157ZM47.0257 25.4386C46.6907 19.5169 41.3677 14.6727 35.3726 14.7819C28.846 14.9 24.2757 20.083 23.9831 25.4331H25.6346C25.6603 25.4041 25.6759 25.3941 25.677 25.3818C25.6904 25.2492 25.6993 25.1166 25.7139 24.984C26.1192 21.1093 28.1313 18.4538 31.7816 17.0597C33.4331 16.4289 35.1694 16.4936 36.8879 16.5928C38.7534 16.71 40.5351 17.4084 41.982 18.5895C43.4289 19.7706 44.4681 21.3749 44.9532 23.1765C45.1486 23.912 45.2357 24.6764 45.3753 25.4386H47.0257ZM35.4128 47.6358C34.4079 48.6934 33.4587 49.7097 32.4906 50.7104C32.2896 50.9176 32.2673 51.0636 32.4325 51.3099C33.4375 52.8121 34.419 54.3265 35.4117 55.8354C35.4318 55.8666 35.4809 55.8777 35.5356 55.91C35.9689 55.2269 36.3876 54.5483 36.8265 53.883C37.4049 53.0049 38.0056 52.1412 38.5762 51.2587C38.6465 51.1472 38.6599 50.8942 38.5851 50.8129C37.5534 49.7576 36.5004 48.7179 35.4151 47.6358H35.4128ZM36.6992 46.2785L39.771 49.343C40.3862 47.8531 40.9993 46.3688 41.6078 44.8856C41.6364 44.7893 41.6277 44.6859 41.5833 44.5958C41.2204 43.8525 40.8474 43.1148 40.4532 42.3281L36.6992 46.2785ZM31.2623 49.4244L34.1053 46.4267L30.3501 42.7081C30.043 43.3199 29.7169 43.9617 29.4032 44.6103C29.364 44.7028 29.3608 44.8065 29.3942 44.9012C29.9994 46.3755 30.6113 47.8476 31.2646 49.4244H31.2623ZM23.9139 27.2484C23.9139 28.8497 23.9005 30.4143 23.9217 31.9778C23.9184 32.1974 24.0022 32.4095 24.1549 32.5677C24.3076 32.7259 24.5168 32.8175 24.7368 32.8225C25.1902 32.8559 25.648 32.8303 26.1226 32.8303C25.9729 30.9514 25.8267 29.106 25.6759 27.2484H23.9139ZM44.875 32.8024C44.9214 32.8186 44.9693 32.8298 45.018 32.8358C45.353 32.8358 45.6991 32.8448 46.0397 32.8358C46.7342 32.8236 47.0815 32.487 47.0848 31.7961C47.0927 30.3619 47.0848 28.9277 47.0848 27.4935C47.079 27.4149 47.0659 27.3369 47.0457 27.2606H45.3128C45.1687 29.1194 45.0247 30.9448 44.8773 32.8046L44.875 32.8024ZM34.6022 38.1748C34.8992 38.1748 35.1973 38.1915 35.4955 38.1748C36.0147 38.1391 36.382 37.7658 36.3887 37.2967C36.387 37.0635 36.2938 36.8403 36.1291 36.6749C35.9644 36.5095 35.7413 36.4151 35.5077 36.4119C34.9148 36.3862 34.3196 36.3873 33.7211 36.4119C33.4869 36.4118 33.262 36.5036 33.0949 36.6674C32.9279 36.8313 32.8319 37.054 32.8278 37.2878C32.8278 37.7569 33.1908 38.1369 33.7089 38.1793C34.0092 38.1993 34.3063 38.1759 34.6033 38.177L34.6022 38.1748ZM36.9214 43.4491H33.9143L35.4519 45.0003L36.9214 43.4491ZM26.7278 36.3717C26.6161 35.7756 26.5178 35.2117 26.4173 34.6534H25.7139C25.6256 35.9706 25.8479 36.355 26.7289 36.374L26.7278 36.3717Z" fill="white"/>
<path id="Vector_2" d="M51.5917 53.4885C51.5672 53.9554 51.3941 54.2541 50.9921 54.3945C50.5678 54.5427 50.235 54.4034 49.9816 54.0602C49.5472 53.464 49.1374 52.8489 48.6829 52.2683C48.4763 52.003 48.1883 51.8025 47.9415 51.5684C47.487 51.1372 47.4312 50.6335 47.7919 50.2379C48.1525 49.8423 48.6349 49.8445 49.1028 50.2234C50.0641 50.9949 50.8558 51.9558 51.4287 53.0461C51.4939 53.1893 51.5484 53.3372 51.5917 53.4885Z" fill="white"/>
<path id="Vector_3" d="M45.3287 48.2421C45.5035 48.2463 45.6731 48.3022 45.8162 48.4026C45.9592 48.5031 46.0692 48.6436 46.1322 48.8064C46.1952 48.9692 46.2084 49.147 46.1702 49.3173C46.1319 49.4877 46.044 49.6428 45.9174 49.7633C45.7908 49.8837 45.6312 49.9639 45.4589 49.9939C45.2866 50.0238 45.1093 50.0021 44.9494 49.9315C44.7895 49.8609 44.6541 49.7445 44.5604 49.5971C44.4667 49.4498 44.419 49.278 44.4231 49.1035C44.4356 48.8718 44.5363 48.6536 44.7046 48.4935C44.8729 48.3334 45.0962 48.2434 45.3287 48.2421Z" fill="white"/>
</g>
</g>
</g>
</g>
<defs>
<linearGradient id="paint0_linear_1673_4886" x1="36" y1="0" x2="36" y2="72" gradientUnits="userSpaceOnUse">
<stop stop-color="#F87988"/>
<stop offset="1" stop-color="#EA475B"/>
</linearGradient>
<clipPath id="clip0_1673_4886">
<rect width="41" height="45.5556" fill="white" transform="translate(15 13)"/>
</clipPath>
</defs>
</svg>
