<svg width="72" height="72" viewBox="0 0 72 72" fill="none" xmlns="http://www.w3.org/2000/svg">
<rect width="72" height="72" rx="17.2301" fill="url(#paint0_linear_1673_4927)"/>
<g clip-path="url(#clip0_1673_4927)">
<path d="M15 23.2956C15.2367 22.4451 15.6318 21.6859 16.4813 21.3248C16.9316 21.1294 17.4157 21.0238 17.9064 21.0139C29.6378 20.9966 41.3689 20.9932 53.0996 21.0039C54.8938 21.0039 55.998 22.1482 55.998 23.9565C55.998 32.0038 55.998 40.0515 55.998 48.0996C55.998 49.9238 54.8848 51.0481 53.0595 51.0531C50.151 51.0601 47.2426 51.0531 44.3342 51.0531C35.566 51.0531 26.7979 51.0531 18.0298 51.0531C16.8082 51.0531 15.8434 50.6319 15.2768 49.4996C15.1705 49.2573 15.0791 49.0088 15.003 48.7555L15 23.2956ZM25.8926 49.7724H26.3329C35.2187 49.7724 44.1042 49.7724 52.9893 49.7724C54.1928 49.7724 54.7163 49.2449 54.7163 48.0384V24.0207C54.7163 22.8172 54.1928 22.2866 52.9893 22.2866H25.8926V49.7724ZM24.5607 49.7523V22.2856H24.1365C22.0946 22.2856 20.053 22.2856 18.0117 22.2856C16.8083 22.2856 16.2827 22.8122 16.2827 24.0167C16.2827 32.0219 16.2827 40.0268 16.2827 48.0314C16.2827 49.2348 16.8052 49.7674 18.0067 49.7684C20.048 49.7684 22.0892 49.7684 24.1305 49.7684C24.2729 49.7684 24.4163 49.7564 24.5607 49.7493V49.7523Z" fill="white"/>
<path d="M46.1394 36.1258C46.0642 36.8369 45.988 37.548 45.9158 38.259C45.8556 38.8608 45.8034 39.4535 45.7413 40.0502C45.6921 40.5276 45.4404 40.7834 45.0452 40.7603C44.6501 40.7372 44.4224 40.4594 44.4676 39.965C44.63 38.1999 44.8116 36.4357 44.9861 34.6706C45.0262 34.2594 45.0743 33.8492 45.1074 33.437C45.1365 33.062 45.2478 32.74 45.666 32.6708C46.0843 32.6016 46.2969 32.8644 46.4373 33.2174C47.0725 34.814 47.7076 36.4093 48.3428 38.0033C48.3869 38.1136 48.4431 38.2199 48.5123 38.3804C48.9867 37.197 49.443 36.0627 49.8983 34.9274C50.131 34.3467 50.3647 33.766 50.5933 33.1833C50.7287 32.8383 50.9484 32.6066 51.3445 32.6698C51.7407 32.733 51.868 33.0349 51.9041 33.3949C52.1148 35.5044 52.326 37.6135 52.538 39.7223C52.5495 39.8282 52.5555 39.9347 52.556 40.0412C52.556 40.4644 52.3354 40.7382 51.9723 40.7623C51.6093 40.7864 51.3325 40.5507 51.2833 40.1345C51.2131 39.5528 51.167 38.9681 51.1088 38.3844C51.0326 37.6312 50.9554 36.88 50.808 36.1148C50.5098 36.8503 50.2126 37.5858 49.9164 38.3212C49.6636 38.9517 49.4126 39.5829 49.1632 40.2147C49.0428 40.5156 48.8754 40.7593 48.5063 40.7613C48.1372 40.7633 47.9647 40.5246 47.8444 40.2217L46.331 36.4388C46.2879 36.3294 46.2417 36.2221 46.1966 36.1148L46.1394 36.1258Z" fill="white"/>
<path d="M38.2013 38.0354C38.2013 38.6622 38.2013 39.2449 38.2013 39.8286C38.207 40.0014 38.1871 40.1741 38.1421 40.3411C38.0418 40.6419 37.8131 40.7853 37.4942 40.7563C37.3593 40.7513 37.2305 40.699 37.1302 40.6086C37.0299 40.5182 36.9646 40.3955 36.9456 40.2618C36.9235 40.1293 36.9151 39.9949 36.9206 39.8607C36.9206 37.7659 36.9206 35.6708 36.9206 33.5754C36.9206 32.8313 37.1011 32.6507 37.8372 32.6507C38.9314 32.6507 40.0266 32.6347 41.1198 32.6668C41.6425 32.6877 42.1473 32.8631 42.5704 33.1709C42.9935 33.4786 43.3158 33.9049 43.4967 34.3958C43.8738 35.4599 43.621 36.6022 42.7836 37.3183C42.4476 37.6061 42.0244 37.7937 41.5951 38.0544L42.4757 39.2359C42.595 39.3963 42.7254 39.5498 42.8337 39.7172C43.0554 40.0582 43.0022 40.4333 42.7154 40.6469C42.4506 40.8475 42.0735 40.7984 41.8268 40.4925C41.4176 39.984 40.9773 39.4896 40.6544 38.9239C40.2312 38.1838 39.6665 37.8789 38.8341 38.0273C38.6426 38.0645 38.441 38.0354 38.2013 38.0354ZM38.2153 36.7426C39.2182 36.7426 40.175 36.7737 41.1308 36.7326C41.8499 36.7025 42.3935 36.0436 42.3844 35.3235C42.3814 34.9666 42.2412 34.6246 41.9929 34.3683C41.7445 34.1119 41.4071 33.9609 41.0505 33.9465C40.4247 33.9234 39.7979 33.9385 39.1721 33.9365H38.2153V36.7426Z" fill="white"/>
<path d="M32.0493 40.7896C30.236 40.7615 28.5852 39.4788 28.1379 37.7307C27.9145 36.8579 27.9881 35.9356 28.3471 35.1093C28.7062 34.2829 29.3302 33.5997 30.1207 33.1675C31.8146 32.2468 33.8746 32.5968 35.1102 34.017C35.5003 34.4653 35.5424 34.8634 35.2285 35.1362C34.9146 35.409 34.5876 35.3368 34.1644 34.8995C33.1615 33.8555 31.8306 33.6278 30.6462 34.3479C29.6433 34.9587 29.198 35.8914 29.3344 37.0558C29.4618 38.1439 30.0755 38.9122 31.0885 39.2933C32.1656 39.6944 33.1595 39.4828 34.0069 38.6835C34.1072 38.5922 34.1895 38.4889 34.2858 38.3967C34.6147 38.0767 34.9607 38.0436 35.2395 38.3024C35.5183 38.5611 35.5053 38.9292 35.2245 39.2702C34.6476 39.9983 33.8295 40.4963 32.9178 40.6743C32.633 40.7355 32.3391 40.7545 32.0493 40.7896Z" fill="white"/>
<path d="M29.3584 23.754C29.7857 23.754 30.2129 23.744 30.6392 23.754C31.0654 23.7641 31.3272 24.0068 31.3412 24.3668C31.3552 24.7269 31.0955 25.0127 30.6803 25.0227C29.7863 25.0434 28.8924 25.0434 27.9985 25.0227C27.9112 25.0251 27.8244 25.0096 27.7433 24.9774C27.6622 24.9451 27.5885 24.8967 27.5267 24.8351C27.4649 24.7734 27.4162 24.6999 27.3837 24.6189C27.3512 24.5378 27.3355 24.4511 27.3376 24.3638C27.3506 24.0078 27.6174 23.7621 28.0396 23.753C28.4779 23.744 28.9182 23.754 29.3584 23.754Z" fill="white"/>
<path d="M40.3203 23.754C40.7465 23.754 41.1737 23.7439 41.601 23.754C42.0282 23.764 42.291 24.0157 42.303 24.3728C42.3151 24.7298 42.0383 25.0136 41.6301 25.0227C40.7365 25.0427 39.8419 25.0437 38.9483 25.0227C38.5271 25.0116 38.2863 24.7278 38.3004 24.3597C38.3144 23.9917 38.5682 23.767 39.0024 23.758C39.4367 23.749 39.88 23.754 40.3203 23.754Z" fill="white"/>
<path d="M45.7673 23.755C46.2076 23.755 46.6479 23.7439 47.0882 23.755C47.5004 23.768 47.7431 23.9917 47.7621 24.3427C47.7832 24.7158 47.5505 25.0066 47.1323 25.0186C46.2256 25.044 45.3187 25.044 44.4114 25.0186C44.324 25.0197 44.2374 25.0029 44.1568 24.9691C44.0762 24.9354 44.0034 24.8855 43.9429 24.8225C43.8824 24.7596 43.8354 24.6848 43.8049 24.603C43.7744 24.5212 43.761 24.4339 43.7655 24.3467C43.7886 24.0017 44.0443 23.767 44.4465 23.754C44.8868 23.7439 45.327 23.755 45.7673 23.755Z" fill="white"/>
<path d="M34.8105 23.755C35.2498 23.755 35.691 23.7439 36.1303 23.755C36.5405 23.767 36.7872 23.9927 36.8093 24.3417C36.819 24.429 36.8098 24.5174 36.7822 24.6009C36.7546 24.6843 36.7093 24.7608 36.6494 24.8251C36.5895 24.8894 36.5164 24.94 36.4351 24.9734C36.3538 25.0068 36.2663 25.0222 36.1785 25.0186C35.2732 25.044 34.3665 25.044 33.4586 25.0186C33.371 25.0216 33.2839 25.006 33.2027 24.973C33.1216 24.94 33.0483 24.8903 32.9877 24.8271C32.927 24.7639 32.8804 24.6886 32.8507 24.6062C32.8211 24.5238 32.8092 24.436 32.8157 24.3487C32.8358 24.0007 33.0865 23.767 33.4897 23.754C33.9289 23.7439 34.3702 23.755 34.8105 23.755Z" fill="white"/>
<path d="M51.2785 23.7538C51.7047 23.7538 52.1319 23.7438 52.5592 23.7538C52.9864 23.7639 53.2502 24.0186 53.2612 24.3746C53.2723 24.7307 52.9945 25.0135 52.5853 25.0225C51.706 25.0432 50.8258 25.0432 49.9446 25.0225C49.4973 25.0125 49.2425 24.7377 49.2596 24.3526C49.2736 23.9895 49.5264 23.7618 49.9616 23.7508C50.3969 23.7398 50.8382 23.7538 51.2785 23.7538Z" fill="white"/>
<path d="M20.445 31.8706C19.7921 31.8706 19.1412 31.8757 18.4873 31.8706C18.04 31.8656 17.7582 31.6249 17.7441 31.2559C17.7301 30.8868 18.028 30.5959 18.4873 30.5929C19.7911 30.5849 21.0949 30.5849 22.3986 30.5929C22.8469 30.5929 23.1107 30.8537 23.1117 31.2348C23.1127 31.6159 22.8449 31.8626 22.3996 31.8686C21.7498 31.8777 21.0969 31.8706 20.445 31.8706Z" fill="white"/>
<path d="M20.4689 23.753C21.0947 23.753 21.7206 23.7469 22.3464 23.753C22.8338 23.759 23.1086 23.9876 23.1156 24.3728C23.1226 24.7579 22.8528 25.0267 22.3765 25.0307C21.0847 25.0427 19.7933 25.0427 18.5022 25.0307C17.9005 25.0236 17.5444 24.5162 17.8463 24.0879C17.9246 23.9959 18.0202 23.9202 18.1278 23.8651C18.2353 23.81 18.3527 23.7767 18.4731 23.767C19.1361 23.7269 19.803 23.753 20.4689 23.753Z" fill="white"/>
<path d="M20.443 36.0739C21.0818 36.0739 21.7217 36.0659 22.3605 36.0739C22.8439 36.0819 23.1157 36.3226 23.1157 36.7097C23.1157 37.0968 22.8449 37.3486 22.3615 37.3526C21.0711 37.3626 19.78 37.3626 18.4883 37.3526C18.0189 37.3526 17.7311 37.0708 17.7451 36.6937C17.7592 36.3166 18.0299 36.0859 18.4863 36.0769C19.1382 36.0649 19.7911 36.0739 20.443 36.0739Z" fill="white"/>
<path d="M20.442 38.8177C21.0939 38.8177 21.7458 38.8117 22.3987 38.8177C22.848 38.8237 23.1147 39.0685 23.1147 39.4476C23.1147 39.8267 22.853 40.0884 22.4037 40.0924C21.0858 40.1045 19.7677 40.1045 18.4492 40.0924C18.0179 40.0924 17.7321 39.7916 17.7471 39.4325C17.7622 39.0735 18.039 38.8227 18.4893 38.8177C19.1372 38.8087 19.7891 38.8177 20.442 38.8177Z" fill="white"/>
<path d="M20.444 41.5508C21.0829 41.5508 21.7227 41.5508 22.3616 41.5508C22.838 41.5508 23.1128 41.7945 23.1138 42.1886C23.1148 42.5828 22.839 42.8275 22.3616 42.8295C21.0698 42.8355 19.7784 42.8355 18.4873 42.8295C18.027 42.8295 17.7301 42.5487 17.7452 42.1696C17.7602 41.7905 18.0461 41.5568 18.4873 41.5518C19.1392 41.5458 19.7921 41.5508 20.444 41.5508Z" fill="white"/>
<path d="M20.4316 34.6104C19.7927 34.6104 19.1539 34.6165 18.515 34.6104C18.0336 34.6044 17.7488 34.3637 17.7428 33.9836C17.7367 33.6035 18.0296 33.3368 18.499 33.3327C19.7907 33.3214 21.0821 33.3214 22.3732 33.3327C22.8506 33.3327 23.1224 33.5975 23.1154 33.9876C23.1083 34.3778 22.8345 34.6044 22.3481 34.6104C21.7083 34.6155 21.0704 34.6104 20.4316 34.6104Z" fill="white"/>
<path d="M19.7759 26.4909C20.2021 26.4909 20.6293 26.4828 21.0556 26.4909C21.4818 26.4989 21.7376 26.7426 21.7446 27.1097C21.7516 27.4767 21.5039 27.7545 21.0837 27.7626C20.1911 27.7806 19.2975 27.7806 18.4029 27.7626C18.3154 27.7647 18.2283 27.7489 18.1471 27.7162C18.0659 27.6835 17.9922 27.6346 17.9305 27.5724C17.8688 27.5103 17.8205 27.4362 17.7884 27.3548C17.7563 27.2733 17.7412 27.1861 17.744 27.0986C17.762 26.7406 18.0338 26.4969 18.455 26.4919C18.9003 26.4828 19.3356 26.4899 19.7759 26.4909Z" fill="white"/>
<path d="M19.7638 46.9322C19.3236 46.9322 18.8833 46.9402 18.444 46.9322C18.0238 46.9222 17.752 46.6725 17.742 46.3154C17.7319 45.9584 18.0077 45.6705 18.4139 45.6615C19.3065 45.6435 20.2011 45.6415 21.0947 45.6615C21.5149 45.6715 21.7556 45.9534 21.7436 46.3234C21.7315 46.6935 21.4738 46.9202 21.0415 46.9252C20.6093 46.9302 20.1911 46.9322 19.7638 46.9322Z" fill="white"/>
</g>
<defs>
<linearGradient id="paint0_linear_1673_4927" x1="36" y1="0" x2="36" y2="72" gradientUnits="userSpaceOnUse">
<stop stop-color="#65ACEE"/>
<stop offset="1" stop-color="#3E82C0"/>
</linearGradient>
<clipPath id="clip0_1673_4927">
<rect width="41" height="30.0582" fill="white" transform="translate(15 21)"/>
</clipPath>
</defs>
</svg>
